<svg viewBox="0 0 50 50" xmlns="http://www.w3.org/2000/svg">
  <defs>
    <!-- Microscopic block patterns -->
    <g id="micro-block-light">
      <g transform="scale(0.006)">
        <rect ry="31.62" rx="31.62" height="189.72" width="189.72" y="152.18" x="152.18" fill="#f6f6f6"></rect>
        <rect ry="31.62" rx="31.62" height="189.72" width="189.72" y="152.18" x="405.14" fill="#f6f6f6"></rect>
        <rect ry="31.62" rx="31.62" height="189.72" width="189.72" y="152.18" x="658.1" fill="#f6f6f6"></rect>
        <rect ry="31.62" rx="31.62" height="189.72" width="189.72" y="405.14" x="152.18" fill="#f6f6f6"></rect>
        <rect ry="31.62" rx="31.62" height="189.72" width="189.72" y="405.14" x="405.14" fill="#f6f6f6"></rect>
        <rect ry="31.62" rx="31.62" height="189.72" width="189.72" y="405.14" x="658.1" fill="#f6f6f6"></rect>
        <rect ry="31.62" rx="31.62" height="189.72" width="189.72" y="658.1" x="152.18" fill="#f6f6f6"></rect>
        <rect ry="31.62" rx="31.62" height="189.72" width="189.72" y="658.1" x="405.14" fill="#f6f6f6"></rect>
        <rect ry="31.62" rx="31.62" height="189.72" width="189.72" y="658.1" x="658.1" fill="#f6f6f6"></rect>
      </g>
    </g>
    
    <g id="micro-block-dark">
      <g transform="scale(0.006)">
        <rect ry="31.62" rx="31.62" height="189.72" width="189.72" y="152.18" x="152.18" fill="#f4f4f4"></rect>
        <rect ry="31.62" rx="31.62" height="189.72" width="189.72" y="152.18" x="405.14" fill="#f4f4f4"></rect>
        <rect ry="31.62" rx="31.62" height="189.72" width="189.72" y="152.18" x="658.1" fill="#f4f4f4"></rect>
        <rect ry="31.62" rx="31.62" height="189.72" width="189.72" y="405.14" x="152.18" fill="#f4f4f4"></rect>
        <rect ry="31.62" rx="31.62" height="189.72" width="189.72" y="405.14" x="405.14" fill="#f4f4f4"></rect>
        <rect ry="31.62" rx="31.62" height="189.72" width="189.72" y="405.14" x="658.1" fill="#f4f4f4"></rect>
        <rect ry="31.62" rx="31.62" height="189.72" width="189.72" y="658.1" x="152.18" fill="#f4f4f4"></rect>
        <rect ry="31.62" rx="31.62" height="189.72" width="189.72" y="658.1" x="405.14" fill="#f4f4f4"></rect>
        <rect ry="31.62" rx="31.62" height="189.72" width="189.72" y="658.1" x="658.1" fill="#f4f4f4"></rect>
      </g>
    </g>
  </defs>
  
  <!-- Background fill -->
  <rect width="50" height="50" fill="#fcfcfc"/>
  
  <!-- Maximum density grid -->
  <use href="#micro-block-light" x="0" y="0"/>
  <use href="#micro-block-dark" x="6" y="0"/>
  <use href="#micro-block-light" x="12" y="0"/>
  <use href="#micro-block-dark" x="18" y="0"/>
  <use href="#micro-block-light" x="24" y="0"/>
  <use href="#micro-block-dark" x="30" y="0"/>
  <use href="#micro-block-light" x="36" y="0"/>
  <use href="#micro-block-dark" x="42" y="0"/>
  <use href="#micro-block-light" x="48" y="0"/>
  
  <use href="#micro-block-dark" x="0" y="6"/>
  <use href="#micro-block-light" x="6" y="6"/>
  <use href="#micro-block-dark" x="12" y="6"/>
  <use href="#micro-block-light" x="18" y="6"/>
  <use href="#micro-block-dark" x="24" y="6"/>
  <use href="#micro-block-light" x="30" y="6"/>
  <use href="#micro-block-dark" x="36" y="6"/>
  <use href="#micro-block-light" x="42" y="6"/>
  <use href="#micro-block-dark" x="48" y="6"/>
  
  <use href="#micro-block-light" x="0" y="12"/>
  <use href="#micro-block-dark" x="6" y="12"/>
  <use href="#micro-block-light" x="12" y="12"/>
  <use href="#micro-block-dark" x="18" y="12"/>
  <use href="#micro-block-light" x="24" y="12"/>
  <use href="#micro-block-dark" x="30" y="12"/>
  <use href="#micro-block-light" x="36" y="12"/>
  <use href="#micro-block-dark" x="42" y="12"/>
  <use href="#micro-block-light" x="48" y="12"/>
  
  <use href="#micro-block-dark" x="0" y="18"/>
  <use href="#micro-block-light" x="6" y="18"/>
  <use href="#micro-block-dark" x="12" y="18"/>
  <use href="#micro-block-light" x="18" y="18"/>
  <use href="#micro-block-dark" x="24" y="18"/>
  <use href="#micro-block-light" x="30" y="18"/>
  <use href="#micro-block-dark" x="36" y="18"/>
  <use href="#micro-block-light" x="42" y="18"/>
  <use href="#micro-block-dark" x="48" y="18"/>
  
  <use href="#micro-block-light" x="0" y="24"/>
  <use href="#micro-block-dark" x="6" y="24"/>
  <use href="#micro-block-light" x="12" y="24"/>
  <use href="#micro-block-dark" x="18" y="24"/>
  <use href="#micro-block-light" x="24" y="24"/>
  <use href="#micro-block-dark" x="30" y="24"/>
  <use href="#micro-block-light" x="36" y="24"/>
  <use href="#micro-block-dark" x="42" y="24"/>
  <use href="#micro-block-light" x="48" y="24"/>
  
  <use href="#micro-block-dark" x="0" y="30"/>
  <use href="#micro-block-light" x="6" y="30"/>
  <use href="#micro-block-dark" x="12" y="30"/>
  <use href="#micro-block-light" x="18" y="30"/>
  <use href="#micro-block-dark" x="24" y="30"/>
  <use href="#micro-block-light" x="30" y="30"/>
  <use href="#micro-block-dark" x="36" y="30"/>
  <use href="#micro-block-light" x="42" y="30"/>
  <use href="#micro-block-dark" x="48" y="30"/>
  
  <use href="#micro-block-light" x="0" y="36"/>
  <use href="#micro-block-dark" x="6" y="36"/>
  <use href="#micro-block-light" x="12" y="36"/>
  <use href="#micro-block-dark" x="18" y="36"/>
  <use href="#micro-block-light" x="24" y="36"/>
  <use href="#micro-block-dark" x="30" y="36"/>
  <use href="#micro-block-light" x="36" y="36"/>
  <use href="#micro-block-dark" x="42" y="36"/>
  <use href="#micro-block-light" x="48" y="36"/>
  
  <use href="#micro-block-dark" x="0" y="42"/>
  <use href="#micro-block-light" x="6" y="42"/>
  <use href="#micro-block-dark" x="12" y="42"/>
  <use href="#micro-block-light" x="18" y="42"/>
  <use href="#micro-block-dark" x="24" y="42"/>
  <use href="#micro-block-light" x="30" y="42"/>
  <use href="#micro-block-dark" x="36" y="42"/>
  <use href="#micro-block-light" x="42" y="42"/>
  <use href="#micro-block-dark" x="48" y="42"/>
  
  <use href="#micro-block-light" x="0" y="48"/>
  <use href="#micro-block-dark" x="6" y="48"/>
  <use href="#micro-block-light" x="12" y="48"/>
  <use href="#micro-block-dark" x="18" y="48"/>
  <use href="#micro-block-light" x="24" y="48"/>
  <use href="#micro-block-dark" x="30" y="48"/>
  <use href="#micro-block-light" x="36" y="48"/>
  <use href="#micro-block-dark" x="42" y="48"/>
  <use href="#micro-block-light" x="48" y="48"/>
</svg>
