<svg viewBox="0 0 1000 1000" xmlns="http://www.w3.org/2000/svg" id="Layer_2"><defs><style>.cls-1{stroke-width:0px;}</style></defs><path d="m587.56,264.25c-6.08,10.79-11.54,21.96-16.5,33.37-47.14-7.07-95.14-7.07-142.4,0-4.84-11.41-10.42-22.58-16.5-33.37-44.28,7.57-87.45,20.84-128.39,39.57-81.13,120.2-103.08,237.3-92.17,352.78,47.51,35.1,100.72,61.9,157.41,79.02,12.78-17.12,24.06-35.35,33.74-54.33-18.36-6.82-36.1-15.38-53.09-25.31,4.47-3.23,8.81-6.57,13.02-9.8,99.61,46.89,214.97,46.89,314.7,0,4.22,3.47,8.56,6.82,13.02,9.8-16.99,10.05-34.73,18.48-53.22,25.43,9.68,18.98,20.96,37.21,33.74,54.33,56.69-17.12,109.9-43.79,157.41-78.89,12.9-133.97-22.08-250.08-92.42-352.91-40.81-18.73-83.98-32-128.26-39.45l-.12-.25Zm-190.91,321.28c-30.64,0-56.07-27.79-56.07-62.15s24.44-62.27,55.94-62.27,56.56,28.03,56.07,62.27c-.5,34.24-24.68,62.15-55.94,62.15Zm206.66,0c-30.76,0-55.94-27.79-55.94-62.15s24.44-62.27,55.94-62.27,56.44,28.03,55.94,62.27c-.5,34.24-24.68,62.15-55.94,62.15Z" class="cls-1" id="Discord-Symbol-Black"></path></svg>