<svg viewBox="0 0 1000 1000" xmlns="http://www.w3.org/2000/svg" id="Layer_4"><defs><style>.cls-1{stroke-width:0px;}</style></defs><path d="m729.15,771.13c-4.91-.7-10.33.99-13.16-5.64-3.48,6.16-7.98,3.21-11.99,2.1-2.92-.81-5.81-2.24-8.3-3.97-2.31-1.61-3.92-1.71-6.3-.14-5.77,3.82-16.75,3.14-21.91-1.54-1.59-1.44-2.28-4.09-2.93-6.31-.89-3.04-1.19-6.25-2.05-9.3-2.24-7.95-8.13-11.78-15.72-13.74-19.39-5.01-38.69-10.4-58.18-15.01-7.75-1.83-15.89-2.11-23.88-2.82-1.95-.17-4.01.73-6.01,1.18-10.59,2.4-20.94-1.6-27.16-10.53-3.73-5.36-4.55-11.83-3.04-17.52,3.79-14.27.21-27.46-3.84-40.77-2-6.57-4.18-13.09-6.22-19.64-.63-2.03-1.79-2.74-4-2.75-9.51-.04-19.02-.42-28.53-.44-2.57,0-5.29.45-7.68,1.38-10.88,4.25-21.71,8.62-32.45,13.22-3.76,1.61-7.23,3.95-10.73,6.11-2.88,1.78-5.11,3.94-5.5,7.76-.46,4.5-4.29,4.94-7.86,5.75-1.94.44-4.31,1.41-5.34,2.92-2.94,4.32-5.72,8.86-7.82,13.64-14.61,33.22-29.09,66.51-43.49,99.83-5.4,12.49-6.44,13.35-19.94,12.93-5.52-.17-10.81.18-16.07,2.49-3.06,1.35-6.93,1.58-10.34,1.26-7.52-.71-14.56-.19-21.14,4.02-2.45,1.57-5.39,2.49-8.21,3.34-2.36.72-4.69.52-6.61-1.61-.63-.7-2.04-.92-3.11-.97-2.85-.13-5.71-.04-8.85-.04.5-4.63,2.51-8.24,6-10.57,13.53-9.01,26.86-18.37,43-22.51,6.86-1.76,13.49-4.41,20.26-6.56,6-1.9,10.65-5.53,13.38-11.13,5.22-10.7,10.27-21.48,15.11-32.35,8.81-19.76,17.55-39.56,25.97-59.49,1.54-3.63,2.12-8.01,1.9-11.98-.54-9.51,3.42-16.87,9.7-23.34,2.83-2.92,6.54-3.45,10.49-3.25,8.73.44,17.49.4,25.93-2.15,4.73-1.43,9.2-3.71,13.79-5.61-.09-.42-.19-.83-.28-1.25-2.99-.47-6.01-1.5-8.96-1.32-11.81.74-20.94-3.72-27.75-13.26-.38-.54-.91-.97-2.02-2.14.3,3.33.52,5.83.74,8.33-.16.08-.32.15-.48.23-.84-1.43-1.71-2.85-2.53-4.29-2.96-5.17-6.42-9.81-10.6-14.2-3.67-3.86-5.46-9.51-8.05-14.31-1.08,2.14-2.53,5-4.35,8.62-.52-5-.96-9.21-1.48-14.11-1.22,1.42-1.98,2.32-3.1,3.62-.64-3.35-1.19-6.19-1.83-9.53-1.09,1.56-1.9,2.72-3.02,4.34-1-3.96-1.87-7.42-2.81-11.15-1.41.87-2.53,1.56-4.35,2.68.46-11.37-8.85-12.94-15.29-17.38-.29.16-.58.32-.87.48.33,3.6.66,7.19,1.06,11.64-5.8-3.73-12.79-4.56-15.37-11.73-6.88,4.3-13.95,2.82-20.92,1.64-2.73-.46-5.11-1.72-5.78-5.02-.51-2.49-2.12-3.75-4.99-3.56-3.98.26-7.99.06-12.1.06-.18-1.27-.33-2.27-.52-3.58-1.76.57-3.46,1.12-5.58,1.82.14-2.73.27-5.16.42-7.94h-9.61c.18-2.69.33-5.01.51-7.64h-6.73c.99-2.2,1.46-4.11,2.56-5.53,1.81-2.34,3.72-4.82,6.13-6.44,8.55-5.73,17.13-11.47,26.09-16.52,7.22-4.07,15.54-3.43,23.56-3.43,9.89,0,19.2,2.61,28.31,6.37,8.57,3.54,17.29,6.73,26,9.9,1.01.37,2.59-.05,3.61-.63,6.57-3.66,13.08-7.45,19.57-11.26.74-.43,1.43-1.1,1.89-1.82,3.39-5.31,8.09-8.94,13.9-11.3,23.53-9.58,47.93-16.23,72.79-21.17,8.85-1.76,17.91-2.73,26.92-3.27,4.82-.29,9.73,1.19,14.61,1.77,16.16,1.92,32.34,3.71,48.04,8.28,4.94,1.44,9.78,3.41,14.82,4.28,2.8.48,5.93-.71,8.87-1.32,1.43-.3,2.74-1.34,4.16-1.47,5.41-.47,9.84-2.74,13.63-6.54,8.98-9,18.25-17.72,26.91-27.02,7.59-8.15,12.06-17.98,13.19-29.25,1.75-17.39,1.69-34.67-4.67-51.21-2.69-7.01-6.12-13.93-10.33-20.13-13.72-20.18-19.53-42.53-20.99-66.62-.87-14.42,1.84-28.07,5.63-41.65,2.19-7.86,12.56-12.97,22.01-11.57,7.25,1.08,12.63,5.67,18.24,9.79.52.38,1.14,1.1,1.14,1.66,0,4.37,3.28,4.47,6.32,5.22,4.21,1.04,8.45,2.15,12.45,3.79,1.57.64,2.53,2.79,3.77,4.25-1.49,1.24-2.84,3.27-4.49,3.55-4.15.7-8.43.8-12.66.75-2.83-.03-4.91.78-6.29,3.24-1.9,3.38-4.63,5.12-8.56,6.07-5.44,1.32-9.27,5.26-11.64,10.41-2.98,6.49-3.95,13.31-1.69,20.1,3.4,10.18,6.79,20.43,11.16,30.21,4.85,10.86,10.71,21.27,16.26,31.81,6.91,13.13,10.52,27.04,10.48,41.91-.02,8.48.39,16.98.08,25.45-.56,15.39-5.88,29.58-12.17,43.39-6.93,15.22-16.37,28.92-26.75,41.93-3.95,4.95-4.31,8.7-.99,14.23,3.97,6.61,6.78,13.98,9.6,21.21,2.9,7.44,3.21,15.14,1.02,22.95-5.45,19.47-14.68,36.83-29.09,51.09-10.14,10.03-22.48,14.28-36.8,11.61-1.01-.19-2.32-.26-2.91-.91-2.8-3.12-5.28-1.64-8.21-.11-7.86,4.11-16.24,4.1-24.8,2.77-2.06-.32-4.49.16-6.43,1-3.13,1.36-5.88,3.63-9.03,4.95-3.28,1.37-4.53,3.33-4.56,6.91-.13,17.42-1.12,34.89,3.98,51.9.26.88.57,1.75.75,2.64.97,4.88,2.81,8.1,8.91,7.46,4.06-.42,7.31,1.99,8.95,6.22.47,1.21,2.12,2.39,3.45,2.76,24.35,6.71,48.91,12.14,74.31,12.97,5.31.17,10.75,1.2,15.82,2.81,6.71,2.12,11.65,6.58,13.92,13.64,1.07,3.3,3.39,5.67,6.91,6.61,5.39,1.45,9.77,3.85,10.65,10.19.16,1.16,1.7,2.43,2.91,3.1,4.9,2.73,9.86,5.36,14.9,7.82,9.35,4.56,13.94,11.87,13.32,22.88Z" class="cls-1"></path></svg>