<svg width="110" height="110" viewBox="0 0 110 110" fill="none" xmlns="http://www.w3.org/2000/svg">
<path d="M89.048 0C100.619 0.000124984 110 9.38065 110 20.9521V89.0479C110 100.619 100.619 110 89.048 110H20.952C9.381 110 0 100.619 0 89.0479V20.9521C0 9.38065 9.381 0.000125869 20.952 0H89.048ZM65.657 24.0908C58.913 20.2249 50.483 25.0799 50.483 32.8701V34.1777C50.48 34.5332 50.573 34.8833 50.752 35.1904C50.931 35.4974 51.19 35.7502 51.501 35.9219L56.239 38.625C56.538 38.796 56.877 38.8853 57.222 38.8838C57.566 38.8822 57.905 38.7901 58.203 38.6162C58.501 38.4424 58.747 38.1929 58.918 37.8936C59.089 37.5941 59.177 37.2548 59.175 36.9102V33.7998C59.175 33.4493 59.268 33.1046 59.442 32.8008C59.617 32.4972 59.868 32.2447 60.171 32.0684C60.474 31.8919 60.818 31.7971 61.169 31.7949C61.519 31.7929 61.864 31.883 62.169 32.0557L71.471 37.4043L80.743 42.7236C81.048 42.8983 81.301 43.1504 81.477 43.4541C81.652 43.7577 81.745 44.1023 81.745 44.4531C81.745 44.8039 81.652 45.1485 81.477 45.4521C81.301 45.7558 81.048 46.008 80.743 46.1826L71.471 51.502L62.169 56.8506C61.864 57.0232 61.519 57.1134 61.169 57.1113C60.818 57.1092 60.474 57.0153 60.171 56.8389C59.868 56.6624 59.617 56.4093 59.442 56.1055C59.268 55.8016 59.175 55.457 59.175 55.1064V53.5664C59.175 45.7764 50.746 40.8925 44.002 44.7871L33.828 50.6592L23.771 56.415C16.998 60.3102 16.998 70.1059 23.771 74.001L44.03 85.5986C50.774 89.4647 59.204 84.6105 59.204 76.8203V75.5127C59.208 75.1573 59.116 74.807 58.937 74.5C58.757 74.1929 58.498 73.9403 58.187 73.7686L53.448 71.0654C53.149 70.8944 52.81 70.8051 52.466 70.8066C52.121 70.8083 51.783 70.9004 51.485 71.0742C51.188 71.2481 50.941 71.4974 50.771 71.7969C50.6 72.0963 50.511 72.4356 50.513 72.7803V75.8906C50.512 76.2409 50.421 76.585 50.246 76.8887C50.071 77.1925 49.819 77.4456 49.517 77.6221C49.214 77.7985 48.87 77.8924 48.52 77.8945C48.169 77.8967 47.824 77.8075 47.519 77.6348L38.217 72.2861L28.944 66.9668C28.64 66.7921 28.387 66.54 28.211 66.2363C28.035 65.9328 27.942 65.5881 27.942 65.2373C27.942 64.8864 28.035 64.541 28.211 64.2373C28.387 63.9337 28.64 63.6824 28.944 63.5078L38.217 58.1875L47.519 52.8398C47.824 52.6671 48.169 52.577 48.52 52.5791C48.87 52.5813 49.214 52.6752 49.517 52.8516C49.82 53.028 50.071 53.2811 50.246 53.585C50.421 53.8886 50.512 54.2328 50.513 54.583V56.124C50.513 63.9142 58.943 68.7975 65.687 64.9023L85.946 53.3047C92.69 49.3806 92.69 39.5847 85.918 35.6895L65.657 24.0908Z" fill="currentColor"/>
</svg>
