<svg width="110" height="110" viewBox="0 0 110 110" fill="none" xmlns="http://www.w3.org/2000/svg">
<path d="M89.048 0C100.619 0.000123695 110 9.38065 110 20.9521V89.0479C110 100.619 100.619 110 89.048 110H20.952C9.381 110 0 100.619 0 89.0479V20.9521C0 9.38065 9.381 0.000125757 20.952 0H89.048ZM56.254 19.3438C55.478 18.886 54.521 18.8859 53.745 19.3438L39.638 27.6641C38.862 28.1215 38.384 28.9667 38.384 29.8809V46.5273C38.384 47.4415 38.862 48.2858 39.638 48.7432L49.204 54.3867C49.979 54.8442 50.457 55.6886 50.457 56.6025V88.4404C50.457 89.8541 51.58 91 52.965 91H57.034C58.419 91 59.542 89.8541 59.542 88.4404V56.6025C59.542 55.6886 60.02 54.8442 60.795 54.3867L70.361 48.7432C71.137 48.2858 71.615 47.4415 71.615 46.5273V29.8809C71.615 28.9667 71.137 28.1215 70.361 27.6641L56.254 19.3438ZM65.357 73.1426C64.103 72.3963 62.529 73.3201 62.529 74.8018V86.0332C62.529 87.5149 64.103 88.4386 65.357 87.6924L69.121 85.4521C69.699 85.1081 70.054 84.4759 70.054 83.793V77.041C70.054 76.3583 69.699 75.7268 69.121 75.3828L65.357 73.1426ZM54.056 29.8984C54.641 29.5499 55.366 29.5499 55.951 29.8984L61.596 33.2578C62.174 33.6019 62.528 34.2341 62.528 34.917V41.6689C62.528 42.3517 62.173 42.9831 61.596 43.3271L55.951 46.6865C55.366 47.035 54.641 47.035 54.056 46.6865L48.412 43.3271C47.834 42.9831 47.479 42.3519 47.479 41.6689V34.917C47.479 34.234 47.834 33.6019 48.412 33.2578L54.056 29.8984Z" fill="currentColor"/>
</svg>
