<svg width="110" height="110" viewBox="0 0 110 110" fill="none" xmlns="http://www.w3.org/2000/svg">
<path d="M24.9869 0H5.01307C2.24412 0 0 2.24412 0 5.01307V24.9869C0 27.7559 2.24412 30 5.01307 30H24.9869C27.7559 30 30 27.7559 30 24.9869V5.01307C30 2.24412 27.7559 0 24.9869 0Z" fill="currentColor"/>
<path d="M64.9869 0H45.0131C42.2441 0 40 2.24412 40 5.01307V24.9869C40 27.7559 42.2441 30 45.0131 30H64.9869C67.7559 30 70 27.7559 70 24.9869V5.01307C70 2.24412 67.7559 0 64.9869 0Z" fill="currentColor"/>
<path d="M104.987 0H85.0131C82.2441 0 80 2.24412 80 5.01307V24.9869C80 27.7559 82.2441 30 85.0131 30H104.987C107.756 30 110 27.7559 110 24.9869V5.01307C110 2.24412 107.756 0 104.987 0Z" fill="currentColor"/>
<path d="M24.9869 40H5.01307C2.24412 40 0 42.2441 0 45.0131V64.9869C0 67.7559 2.24412 70 5.01307 70H24.9869C27.7559 70 30 67.7559 30 64.9869V45.0131C30 42.2441 27.7559 40 24.9869 40Z" fill="currentColor"/>
<path d="M64.9869 40H45.0131C42.2441 40 40 42.2441 40 45.0131V64.9869C40 67.7559 42.2441 70 45.0131 70H64.9869C67.7559 70 70 67.7559 70 64.9869V45.0131C70 42.2441 67.7559 40 64.9869 40Z" fill="currentColor"/>
<path d="M104.987 40H85.0131C82.2441 40 80 42.2441 80 45.0131V64.9869C80 67.7559 82.2441 70 85.0131 70H104.987C107.756 70 110 67.7559 110 64.9869V45.0131C110 42.2441 107.756 40 104.987 40Z" fill="currentColor"/>
<path d="M24.9869 80H5.01307C2.24412 80 0 82.2441 0 85.0131V104.987C0 107.756 2.24412 110 5.01307 110H24.9869C27.7559 110 30 107.756 30 104.987V85.0131C30 82.2441 27.7559 80 24.9869 80Z" fill="currentColor"/>
<path d="M64.9869 80H45.0131C42.2441 80 40 82.2441 40 85.0131V104.987C40 107.756 42.2441 110 45.0131 110H64.9869C67.7559 110 70 107.756 70 104.987V85.0131C70 82.2441 67.7559 80 64.9869 80Z" fill="currentColor"/>
<path d="M104.987 80H85.0131C82.2441 80 80 82.2441 80 85.0131V104.987C80 107.756 82.2441 110 85.0131 110H104.987C107.756 110 110 107.756 110 104.987V85.0131C110 82.2441 107.756 80 104.987 80Z" fill="currentColor"/>
</svg>
