<svg width="110" height="110" viewBox="0 0 110 110" fill="none" xmlns="http://www.w3.org/2000/svg">
<path d="M71.691 0C82.801 1.16187e-10 88.252 0.000393654 94.174 1.93848C100.672 4.29567 105.808 9.42869 108.113 15.9238C110 21.8429 110 27.3431 110 38.3955V71.6572C110 82.6572 110 88.1575 108.113 94.1289C105.755 100.624 100.619 105.757 94.121 108.114C88.199 110 82.696 110 71.639 110H38.309C27.304 110 21.801 110 15.827 108.114C9.329 105.757 4.192 100.624 1.834 94.1289C0 88.2099 0 82.7619 0 71.6572V38.3428C0 27.2906 0 21.7906 1.887 15.8193C4.245 9.32417 9.381 4.19019 15.879 1.83301C21.801 -0.000313486 27.304 1.16076e-10 38.309 0H71.691ZM58.066 19.5381C57.438 19.5382 56.913 19.9571 56.809 20.5332L55.499 26.7666C43.55 27.7095 35.637 34.7814 35.637 44.21C35.637 52.3287 40.93 57.2529 54.241 60.1338C62.05 61.7576 64.355 63.2762 64.355 66.5762C64.355 70.8714 59.744 73.8574 53.612 73.8574C46.799 73.8574 41.139 70.8189 37.471 65.6855C37.051 65.1096 36.213 64.9525 35.637 65.4238L28.719 70.8193C28.195 71.2384 28.09 71.9718 28.457 72.5479C31.444 76.8955 36.633 80.4567 43.026 82.29L41.454 88.9951C41.297 89.7808 41.873 90.5664 42.712 90.5664H52.669C53.297 90.5664 53.822 90.1474 53.927 89.5713L55.185 83.5479C68.128 82.7096 76.408 75.2192 76.408 65.0576C76.408 56.9386 71.116 52.1192 59.534 49.6572C50.363 47.6668 47.376 45.9905 47.48 42.8477C47.48 39.0762 51.306 36.4043 57.438 36.4043C62.94 36.4043 67.972 38.6569 71.221 42.6377C71.64 43.2139 72.426 43.3191 73.003 42.8477L79.344 37.6621C79.867 37.2432 79.972 36.4574 79.554 35.9336C76.933 32.4241 72.74 29.5949 67.604 28.0234L69.124 21.0576C69.281 20.2719 68.652 19.5381 67.866 19.5381H58.066Z" fill="currentColor"/>
</svg>
