<svg xmlns="http://www.w3.org/2000/svg" fill="none" viewBox="0 0 1000 1000" height="1000" width="1000">
<defs>
<mask id="proto-mask">
<rect width="1000" height="1000" rx="80" ry="80" fill="white"/>
<path fill="black" d="M469.612 213.163C446.745 217.948 425.216 230.194 382.157 254.687L338.482 279.531C294.963 304.286 273.204 316.663 257.375 334.043C243.369 349.42 232.785 367.559 226.314 387.278C219 409.564 219 434.479 219 484.31L219 516.143C219 566.206 219 591.237 226.373 613.605C232.897 633.395 243.563 651.587 257.672 666.985C273.618 684.389 295.532 696.731 339.358 721.416L383.143 746.078C425.865 770.141 447.226 782.173 469.892 786.881C489.95 791.047 510.658 791.04 530.712 786.86C553.375 782.136 574.728 770.09 617.433 745.998L660.784 721.542C704.561 696.845 726.449 684.497 742.377 667.097C756.469 651.702 767.122 633.518 773.637 613.74C781 591.385 781 566.372 781 516.346L781 484.272C780.999 434.523 780.999 409.648 773.706 387.391C767.252 367.699 756.697 349.578 742.728 334.208C726.94 316.838 705.235 304.449 661.825 279.67L618.364 254.863C575.342 230.306 553.831 218.027 530.972 213.209C510.745 208.946 489.845 208.93 469.612 213.163ZM420.587 426.777C380.102 426.777 347.283 459.578 347.283 500.041C347.283 540.503 380.102 573.304 420.587 573.304H579.413C619.898 573.304 652.717 540.503 652.717 500.041C652.717 459.578 619.898 426.777 579.413 426.777H420.587Z" clip-rule="evenodd" fill-rule="evenodd"/>
</mask>
</defs>
<rect width="1000" height="1000" rx="80" ry="80" fill="currentColor" mask="url(#proto-mask)"/>
</svg>
