<svg width="110" height="110" viewBox="0 0 110 110" fill="none" xmlns="http://www.w3.org/2000/svg">
<path d="M89.048 0C100.619 0.000124984 110 9.38065 110 20.9521V89.0479C110 100.619 100.619 110 89.048 110H20.952C9.38065 110 0 100.619 0 89.0479V20.9521C0 9.38065 9.38065 0.000125869 20.952 0H89.048ZM31.699 20C30.163 19.9996 28.641 20.302 27.222 20.8896C25.802 21.4772 24.513 22.3388 23.427 23.4248C22.34 24.5109 21.479 25.8006 20.891 27.2197C20.303 28.6388 20 30.1602 20 31.6963V78.2979C20 81.4008 21.233 84.3769 23.427 86.5713C25.621 88.7657 28.596 89.9992 31.699 90H78.301C81.404 89.9992 84.379 88.7657 86.573 86.5713C88.767 84.3769 90 81.4008 90 78.2979V31.6963C90 30.1602 89.697 28.6388 89.109 27.2197C88.521 25.8006 87.66 24.5109 86.573 23.4248C85.487 22.3388 84.198 21.4772 82.778 20.8896C81.359 20.302 79.837 19.9996 78.301 20H31.699ZM73.582 32.7285C74.561 32.7293 75.5 33.1182 76.191 33.8105C76.883 34.5029 77.271 35.4421 77.271 36.4209V73.582C77.271 74.5608 76.883 75.5 76.191 76.1924C75.5 76.8847 74.561 77.2736 73.582 77.2744H36.424C35.939 77.2744 35.459 77.1788 35.011 76.9932C34.563 76.8076 34.156 76.5361 33.813 76.1934C33.471 75.8505 33.2 75.443 33.015 74.9951C32.829 74.5471 32.734 74.0668 32.734 73.582V36.4209C32.734 35.9361 32.829 35.4558 33.015 35.0078C33.2 34.56 33.471 34.1524 33.813 33.8096C34.156 33.4668 34.563 33.1953 35.011 33.0098C35.459 32.8242 35.939 32.7285 36.424 32.7285H73.582ZM47.562 45.4072C47.283 45.4072 47.007 45.4622 46.749 45.5693C46.492 45.6764 46.258 45.8336 46.062 46.0312C45.865 46.2291 45.708 46.4644 45.603 46.7227C45.497 46.9808 45.444 47.2573 45.445 47.5361V62.3701C45.444 62.6489 45.498 62.9257 45.604 63.1836C45.709 63.4415 45.866 63.6755 46.062 63.873C46.259 64.0706 46.493 64.228 46.75 64.335C47.007 64.4419 47.284 64.4971 47.562 64.4971H62.438C62.716 64.4967 62.992 64.441 63.249 64.334C63.506 64.2269 63.741 64.0695 63.938 63.8721C64.134 63.6747 64.29 63.4402 64.396 63.1826C64.501 62.925 64.555 62.6487 64.555 62.3701V47.5361C64.556 47.2572 64.502 46.9807 64.396 46.7227C64.291 46.4647 64.135 46.23 63.938 46.0322C63.742 45.8344 63.507 45.6776 63.25 45.5703C62.993 45.463 62.716 45.4076 62.438 45.4072H47.562Z" fill="currentColor"/>
</svg>
