<svg width="110" height="110" viewBox="0 0 110 110" fill="none" xmlns="http://www.w3.org/2000/svg">
<path d="M89.048 0C100.619 0.000124984 110 9.38065 110 20.9521V89.0479C110 100.619 100.619 110 89.048 110H20.952C9.381 110 0 100.619 0 89.0479V20.9521C0 9.38065 9.381 0.000125869 20.952 0H89.048ZM66.94 44.999L54.708 33.002L42.472 45.002L54.705 57L42.473 68.999L54.708 81L66.943 68.999L54.71 57L66.942 45.002L79.177 57.001L91.412 45L79.177 33L66.94 44.999ZM18 45.0029L30.235 57.0029L42.472 45.0029L30.235 33.002L18 45.0029Z" fill="currentColor"/>
</svg>
