<svg width="110" height="110" viewBox="0 0 110 110" fill="none" xmlns="http://www.w3.org/2000/svg">
<path d="M24.474 46.1631C29.357 46.1631 33.316 50.1215 33.316 55.0049C33.316 59.8883 29.357 63.8467 24.474 63.8467H5.316C0.433 63.8467 -3.526 59.8883 -3.526 55.0049C-3.526 50.1215 0.433 46.1631 5.316 46.1631H24.474Z" fill="currentColor"/>
<path fill-rule="evenodd" clip-rule="evenodd" d="M89.048 0C100.619 0.000123695 110 9.38065 110 20.9521V89.0479C110 100.619 100.619 110 89.048 110H20.952C9.381 110 0 100.619 0 89.0479V20.9521C0 9.38065 9.381 0.000125757 20.952 0H89.048ZM58.631 20.3877C56.191 19.8732 53.67 19.8709 51.229 20.3818C48.471 20.9592 45.874 22.4375 40.681 25.3936L35.412 28.3916C30.163 31.3792 27.538 32.8732 25.629 34.9707C23.94 36.8265 22.662 39.0157 21.882 41.3955C21 44.0852 21 47.0924 21 53.1064V56.9482C21 62.9902 21 66.0113 21.89 68.7109C22.676 71.0993 23.963 73.295 25.665 75.1533C27.588 77.2537 30.231 78.7436 35.518 81.7227L40.8 84.6992C45.953 87.6032 48.53 89.0549 51.264 89.623C53.683 90.1258 56.181 90.1255 58.6 89.6211C61.333 89.051 63.909 87.597 69.06 84.6895L74.289 81.7383C79.569 78.7577 82.21 77.2669 84.131 75.167C85.831 73.3091 87.116 71.1144 87.901 68.7275C88.79 66.0295 88.79 63.0102 88.79 56.9727V53.1016C88.79 47.0975 88.79 44.0953 87.91 41.4092C87.132 39.0325 85.859 36.8451 84.174 34.9902C82.269 32.8938 79.651 31.3986 74.415 28.4082L69.172 25.4141C63.983 22.4505 61.388 20.9692 58.631 20.3877Z" fill="currentColor"/>
</svg>
