<svg xmlns="http://www.w3.org/2000/svg" fill="none" viewBox="0 0 1000 1000" height="1000" width="1000">
<path fill="currentColor" d="M762.532 347.283L583.103 247.338C530.48 217.982 464.616 254.635 464.616 313.346V323.527C464.616 332.86 469.708 341.344 478.026 345.925L511.977 364.761C521.992 370.36 534.384 363.403 534.384 352.373V326.921C534.384 314.194 548.643 306.219 560.017 312.497L715.341 399.207C726.714 405.655 726.714 421.605 715.341 427.884L560.017 514.593C548.643 521.041 534.384 513.066 534.384 500.17V486.595C534.384 427.884 468.52 391.062 415.897 420.587L236.468 520.532C183.844 549.888 183.844 623.361 236.468 652.717L415.897 752.662C468.52 782.018 534.384 745.366 534.384 686.654V676.473C534.384 667.14 529.292 658.656 520.974 654.075L487.023 635.239C477.008 629.64 464.616 636.597 464.616 647.627V673.079C464.616 685.806 450.356 693.781 438.983 687.503L283.659 600.793C272.285 594.345 272.285 578.395 283.659 572.116L438.983 485.407C450.356 478.959 464.616 486.934 464.616 499.83V513.405C464.616 572.116 530.48 608.938 583.103 579.413L762.532 479.468C815.156 450.282 815.156 376.808 762.532 347.453V347.283Z"></path>
</svg>
