<svg width="950" height="110" viewBox="0 0 950 110" fill="none" xmlns="http://www.w3.org/2000/svg">
<path d="M24.9869 0H5.01307C2.24412 0 0 2.24412 0 5.01307V24.9869C0 27.7559 2.24412 30 5.01307 30H24.9869C27.7559 30 30 27.7559 30 24.9869V5.01307C30 2.24412 27.7559 0 24.9869 0Z" fill="black"/>
<path d="M64.9869 0H45.0131C42.2441 0 40 2.24412 40 5.01307V24.9869C40 27.7559 42.2441 30 45.0131 30H64.9869C67.7559 30 70 27.7559 70 24.9869V5.01307C70 2.24412 67.7559 0 64.9869 0Z" fill="black"/>
<path d="M104.987 0H85.0131C82.2441 0 80 2.24412 80 5.01307V24.9869C80 27.7559 82.2441 30 85.0131 30H104.987C107.756 30 110 27.7559 110 24.9869V5.01307C110 2.24412 107.756 0 104.987 0Z" fill="black"/>
<path d="M24.9869 40H5.01307C2.24412 40 0 42.2441 0 45.0131V64.9869C0 67.7559 2.24412 70 5.01307 70H24.9869C27.7559 70 30 67.7559 30 64.9869V45.0131C30 42.2441 27.7559 40 24.9869 40Z" fill="black"/>
<path d="M64.9869 40H45.0131C42.2441 40 40 42.2441 40 45.0131V64.9869C40 67.7559 42.2441 70 45.0131 70H64.9869C67.7559 70 70 67.7559 70 64.9869V45.0131C70 42.2441 67.7559 40 64.9869 40Z" fill="black"/>
<path d="M104.987 40H85.0131C82.2441 40 80 42.2441 80 45.0131V64.9869C80 67.7559 82.2441 70 85.0131 70H104.987C107.756 70 110 67.7559 110 64.9869V45.0131C110 42.2441 107.756 40 104.987 40Z" fill="black"/>
<path d="M24.9869 80H5.01307C2.24412 80 0 82.2441 0 85.0131V104.987C0 107.756 2.24412 110 5.01307 110H24.9869C27.7559 110 30 107.756 30 104.987V85.0131C30 82.2441 27.7559 80 24.9869 80Z" fill="black"/>
<path d="M64.9869 80H45.0131C42.2441 80 40 82.2441 40 85.0131V104.987C40 107.756 42.2441 110 45.0131 110H64.9869C67.7559 110 70 107.756 70 104.987V85.0131C70 82.2441 67.7559 80 64.9869 80Z" fill="black"/>
<path d="M104.987 80H85.0131C82.2441 80 80 82.2441 80 85.0131V104.987C80 107.756 82.2441 110 85.0131 110H104.987C107.756 110 110 107.756 110 104.987V85.0131C110 82.2441 107.756 80 104.987 80Z" fill="black"/>
<path d="M229.048 0C240.619 0.000124984 250 9.38065 250 20.9521V89.0479C250 100.619 240.619 110 229.048 110H160.952C149.381 110 140 100.619 140 89.0479V20.9521C140 9.38065 149.381 0.000125869 160.952 0H229.048ZM171.699 20C170.163 19.9996 168.641 20.302 167.222 20.8896C165.802 21.4772 164.513 22.3388 163.427 23.4248C162.34 24.5109 161.479 25.8006 160.891 27.2197C160.303 28.6388 160 30.1602 160 31.6963V78.2979C160 81.4008 161.233 84.3769 163.427 86.5713C165.621 88.7657 168.596 89.9992 171.699 90H218.301C221.404 89.9992 224.379 88.7657 226.573 86.5713C228.767 84.3769 230 81.4008 230 78.2979V31.6963C230 30.1602 229.697 28.6388 229.109 27.2197C228.521 25.8006 227.66 24.5109 226.573 23.4248C225.487 22.3388 224.198 21.4772 222.778 20.8896C221.359 20.302 219.837 19.9996 218.301 20H171.699ZM213.582 32.7285C214.561 32.7293 215.5 33.1182 216.191 33.8105C216.883 34.5029 217.271 35.4421 217.271 36.4209V73.582C217.271 74.5608 216.883 75.5 216.191 76.1924C215.5 76.8847 214.561 77.2736 213.582 77.2744H176.424C175.939 77.2744 175.459 77.1788 175.011 76.9932C174.563 76.8076 174.156 76.5361 173.813 76.1934C173.471 75.8505 173.2 75.443 173.015 74.9951C172.829 74.5471 172.734 74.0668 172.734 73.582V36.4209C172.734 35.9361 172.829 35.4558 173.015 35.0078C173.2 34.56 173.471 34.1524 173.813 33.8096C174.156 33.4668 174.563 33.1953 175.011 33.0098C175.459 32.8242 175.939 32.7285 176.424 32.7285H213.582ZM187.562 45.4072C187.283 45.4072 187.007 45.4622 186.749 45.5693C186.492 45.6764 186.258 45.8336 186.062 46.0312C185.865 46.2291 185.708 46.4644 185.603 46.7227C185.497 46.9808 185.444 47.2573 185.445 47.5361V62.3701C185.444 62.6489 185.498 62.9257 185.604 63.1836C185.709 63.4415 185.866 63.6755 186.062 63.873C186.259 64.0706 186.493 64.228 186.75 64.335C187.007 64.4419 187.284 64.4971 187.562 64.4971H202.438C202.716 64.4967 202.992 64.441 203.249 64.334C203.506 64.2269 203.741 64.0695 203.938 63.8721C204.134 63.6747 204.29 63.4402 204.396 63.1826C204.501 62.925 204.555 62.6487 204.555 62.3701V47.5361C204.556 47.2572 204.502 46.9807 204.396 46.7227C204.291 46.4647 204.135 46.23 203.938 46.0322C203.742 45.8344 203.507 45.6776 203.25 45.5703C202.993 45.463 202.716 45.4076 202.438 45.4072H187.562Z" fill="black"/>
<path d="M351.691 0C362.801 1.16187e-10 368.252 0.000393654 374.174 1.93848C380.672 4.29567 385.808 9.42869 388.113 15.9238C390 21.8429 390 27.3431 390 38.3955V71.6572C390 82.6572 390 88.1575 388.113 94.1289C385.755 100.624 380.619 105.757 374.121 108.114C368.199 110 362.696 110 351.639 110H318.309C307.304 110 301.801 110 295.827 108.114C289.329 105.757 284.192 100.624 281.834 94.1289C280 88.2099 280 82.7619 280 71.6572V38.3428C280 27.2906 280 21.7906 281.887 15.8193C284.245 9.32417 289.381 4.19019 295.879 1.83301C301.801 -0.000313486 307.304 1.16076e-10 318.309 0H351.691ZM338.066 19.5381C337.438 19.5382 336.913 19.9571 336.809 20.5332L335.499 26.7666C323.55 27.7095 315.637 34.7814 315.637 44.21C315.637 52.3287 320.93 57.2529 334.241 60.1338C342.05 61.7576 344.355 63.2762 344.355 66.5762C344.355 70.8714 339.744 73.8574 333.612 73.8574C326.799 73.8574 321.139 70.8189 317.471 65.6855C317.051 65.1096 316.213 64.9525 315.637 65.4238L308.719 70.8193C308.195 71.2384 308.09 71.9718 308.457 72.5479C311.444 76.8955 316.633 80.4567 323.026 82.29L321.454 88.9951C321.297 89.7808 321.873 90.5664 322.712 90.5664H332.669C333.297 90.5664 333.822 90.1474 333.927 89.5713L335.185 83.5479C348.128 82.7096 356.408 75.2192 356.408 65.0576C356.408 56.9386 351.116 52.1192 339.534 49.6572C330.363 47.6668 327.376 45.9905 327.48 42.8477C327.48 39.0762 331.306 36.4043 337.438 36.4043C342.94 36.4043 347.972 38.6569 351.221 42.6377C351.64 43.2139 352.426 43.3191 353.003 42.8477L359.344 37.6621C359.867 37.2432 359.972 36.4574 359.554 35.9336C356.933 32.4241 352.74 29.5949 347.604 28.0234L349.124 21.0576C349.281 20.2719 348.652 19.5381 347.866 19.5381H338.066Z" fill="black"/>
<path d="M509.048 0C520.619 0.000124984 530 9.38065 530 20.9521V89.0479C530 100.619 520.619 110 509.048 110H440.952C429.381 110 420 100.619 420 89.0479V20.9521C420 9.38065 429.381 0.000125869 440.952 0H509.048ZM485.657 24.0908C478.913 20.2249 470.483 25.0799 470.483 32.8701V34.1777C470.48 34.5332 470.573 34.8833 470.752 35.1904C470.931 35.4974 471.19 35.7502 471.501 35.9219L476.239 38.625C476.538 38.796 476.877 38.8853 477.222 38.8838C477.566 38.8822 477.905 38.7901 478.203 38.6162C478.501 38.4424 478.747 38.1929 478.918 37.8936C479.089 37.5941 479.177 37.2548 479.175 36.9102V33.7998C479.175 33.4493 479.268 33.1046 479.442 32.8008C479.617 32.4972 479.868 32.2447 480.171 32.0684C480.474 31.8919 480.818 31.7971 481.169 31.7949C481.519 31.7929 481.864 31.883 482.169 32.0557L491.471 37.4043L500.743 42.7236C501.048 42.8983 501.301 43.1504 501.477 43.4541C501.652 43.7577 501.745 44.1023 501.745 44.4531C501.745 44.8039 501.652 45.1485 501.477 45.4521C501.301 45.7558 501.048 46.008 500.743 46.1826L491.471 51.502L482.169 56.8506C481.864 57.0232 481.519 57.1134 481.169 57.1113C480.818 57.1092 480.474 57.0153 480.171 56.8389C479.868 56.6624 479.617 56.4093 479.442 56.1055C479.268 55.8016 479.175 55.457 479.175 55.1064V53.5664C479.175 45.7764 470.746 40.8925 464.002 44.7871L453.828 50.6592L443.771 56.415C436.998 60.3102 436.998 70.1059 443.771 74.001L464.03 85.5986C470.774 89.4647 479.204 84.6105 479.204 76.8203V75.5127C479.208 75.1573 479.116 74.807 478.937 74.5C478.757 74.1929 478.498 73.9403 478.187 73.7686L473.448 71.0654C473.149 70.8944 472.81 70.8051 472.466 70.8066C472.121 70.8083 471.783 70.9004 471.485 71.0742C471.188 71.2481 470.941 71.4974 470.771 71.7969C470.6 72.0963 470.511 72.4356 470.513 72.7803V75.8906C470.512 76.2409 470.421 76.585 470.246 76.8887C470.071 77.1925 469.819 77.4456 469.517 77.6221C469.214 77.7985 468.87 77.8924 468.52 77.8945C468.169 77.8967 467.824 77.8075 467.519 77.6348L458.217 72.2861L448.944 66.9668C448.64 66.7921 448.387 66.54 448.211 66.2363C448.035 65.9328 447.942 65.5881 447.942 65.2373C447.942 64.8864 448.035 64.541 448.211 64.2373C448.387 63.9337 448.64 63.6824 448.944 63.5078L458.217 58.1875L467.519 52.8398C467.824 52.6671 468.169 52.577 468.52 52.5791C468.87 52.5813 469.214 52.6752 469.517 52.8516C469.82 53.028 470.071 53.2811 470.246 53.585C470.421 53.8886 470.512 54.2328 470.513 54.583V56.124C470.513 63.9142 478.943 68.7975 485.687 64.9023L505.946 53.3047C512.69 49.3806 512.69 39.5847 505.918 35.6895L485.657 24.0908Z" fill="black"/>
<path d="M649.048 0C660.619 0.000124984 670 9.38065 670 20.9521V89.0479C670 100.619 660.619 110 649.048 110H580.952C569.381 110 560 100.619 560 89.0479V20.9521C560 9.38065 569.381 0.000125869 580.952 0H649.048ZM626.94 44.999L614.708 33.002L602.472 45.002L614.705 57L602.473 68.999L614.708 81L626.943 68.999L614.71 57L626.942 45.002L639.177 57.001L651.412 45L639.177 33L626.94 44.999ZM578 45.0029L590.235 57.0029L602.472 45.0029L590.235 33.002L578 45.0029Z" fill="black"/>
<path d="M789.048 0C800.619 0.000123695 810 9.38065 810 20.9521V89.0479C810 100.619 800.619 110 789.048 110H720.952C709.381 110 700 100.619 700 89.0479V20.9521C700 9.38065 709.381 0.000125757 720.952 0H789.048ZM756.254 19.3438C755.478 18.886 754.521 18.8859 753.745 19.3438L739.638 27.6641C738.862 28.1215 738.384 28.9667 738.384 29.8809V46.5273C738.384 47.4415 738.862 48.2858 739.638 48.7432L749.204 54.3867C749.979 54.8442 750.457 55.6886 750.457 56.6025V88.4404C750.457 89.8541 751.58 91 752.965 91H757.034C758.419 91 759.542 89.8541 759.542 88.4404V56.6025C759.542 55.6886 760.02 54.8442 760.795 54.3867L770.361 48.7432C771.137 48.2858 771.615 47.4415 771.615 46.5273V29.8809C771.615 28.9667 771.137 28.1215 770.361 27.6641L756.254 19.3438ZM765.357 73.1426C764.103 72.3963 762.529 73.3201 762.529 74.8018V86.0332C762.529 87.5149 764.103 88.4386 765.357 87.6924L769.121 85.4521C769.699 85.1081 770.054 84.4759 770.054 83.793V77.041C770.054 76.3583 769.699 75.7268 769.121 75.3828L765.357 73.1426ZM754.056 29.8984C754.641 29.5499 755.366 29.5499 755.951 29.8984L761.596 33.2578C762.174 33.6019 762.528 34.2341 762.528 34.917V41.6689C762.528 42.3517 762.173 42.9831 761.596 43.3271L755.951 46.6865C755.366 47.035 754.641 47.035 754.056 46.6865L748.412 43.3271C747.834 42.9831 747.479 42.3519 747.479 41.6689V34.917C747.479 34.234 747.834 33.6019 748.412 33.2578L754.056 29.8984Z" fill="black"/>
<path d="M904.474 46.1631C909.357 46.1631 913.316 50.1215 913.316 55.0049C913.316 59.8883 909.357 63.8467 904.474 63.8467H885.316C880.433 63.8467 876.474 59.8883 876.474 55.0049C876.474 50.1215 880.433 46.1631 885.316 46.1631H904.474Z" fill="black"/>
<path fill-rule="evenodd" clip-rule="evenodd" d="M929.048 0C940.619 0.000123695 950 9.38065 950 20.9521V89.0479C950 100.619 940.619 110 929.048 110H860.952C849.381 110 840 100.619 840 89.0479V20.9521C840 9.38065 849.381 0.000125757 860.952 0H929.048ZM898.631 20.3877C896.191 19.8732 893.67 19.8709 891.229 20.3818C888.471 20.9592 885.874 22.4375 880.681 25.3936L875.412 28.3916C870.163 31.3792 867.538 32.8732 865.629 34.9707C863.94 36.8265 862.662 39.0157 861.882 41.3955C861 44.0852 861 47.0924 861 53.1064V56.9482C861 62.9902 861 66.0113 861.89 68.7109C862.676 71.0993 863.963 73.295 865.665 75.1533C867.588 77.2537 870.231 78.7436 875.518 81.7227L880.8 84.6992C885.953 87.6032 888.53 89.0549 891.264 89.623C893.683 90.1258 896.181 90.1255 898.6 89.6211C901.333 89.051 903.909 87.597 909.06 84.6895L914.289 81.7383C919.569 78.7577 922.21 77.2669 924.131 75.167C925.831 73.3091 927.116 71.1144 927.901 68.7275C928.79 66.0295 928.79 63.0102 928.79 56.9727V53.1016C928.79 47.0975 928.79 44.0953 927.91 41.4092C927.132 39.0325 925.859 36.8451 924.174 34.9902C922.269 32.8938 919.651 31.3986 914.415 28.4082L909.172 25.4141C903.983 22.4505 901.388 20.9692 898.631 20.3877Z" fill="black"/>
</svg>
