<svg viewBox="0 0 1000 1000" xmlns="http://www.w3.org/2000/svg" id="Layer_5"><defs><style>.cls-1{stroke-width:0px;}</style></defs><path d="m324.11,263.41c71.2,53.45,147.77,161.83,175.89,219.98,28.12-58.16,104.69-166.53,175.89-219.98,51.37-38.57,134.61-68.41,134.61,26.55,0,18.96-10.87,159.31-17.25,182.1-22.17,79.21-102.94,99.42-174.79,87.19,125.59,21.38,157.54,92.18,88.54,162.98-131.04,134.47-188.35-33.74-203.03-76.84-2.69-7.9-3.95-11.6-3.97-8.45-.02-3.14-1.28.55-3.97,8.45-14.68,43.1-71.99,211.31-203.03,76.84-69-70.8-37.05-141.61,88.54-162.98-71.85,12.23-152.63-7.98-174.79-87.19-6.38-22.79-17.25-163.13-17.25-182.1,0-94.96,83.24-65.12,134.61-26.55Z" class="cls-1"></path></svg>