<svg xmlns="http://www.w3.org/2000/svg" fill="none" viewBox="0 0 1000 1000" height="1000" width="1000">
<g clip-path="url(#clip0_226_2730)">
<path fill="currentColor" d="M828.384 258.183C813.81 217.948 782.097 186.238 741.887 171.666C704.833 160 671.136 160 602.538 160H396.835L396.864 160.029C328.68 160.029 294.562 160.029 258.113 171.357C217.896 185.928 186.19 217.638 171.616 257.895C160 294.701 160 328.763 160 396.961V602.744C160 671.311 160 705.086 171.328 741.817C185.902 782.052 217.616 813.762 257.826 828.334C294.613 840 328.68 840 396.864 840H602.878C671.143 840 705.18 840 741.887 828.334C782.126 813.762 813.81 782.052 828.384 741.817C840 705.012 840 670.949 840 602.744V397.249C840 328.969 840 294.907 828.384 258.175V258.183ZM649.858 392.765L610.644 424.918C607.236 427.713 602.266 427.1 599.492 423.679C579.564 399.034 548.19 385.103 514.205 385.103C476.333 385.103 452.791 401.482 452.791 425.021C452.791 444.467 471.214 454.703 527.51 466.981C599.161 482.335 631.914 512.017 631.914 562.162C631.914 625.029 580.715 671.436 500.789 676.348L492.994 713.537C492.234 717.172 489.026 719.775 485.308 719.775H423.821C418.754 719.775 415.015 715.048 416.187 710.115L426.056 668.531C386.436 657.263 354.56 635.339 335.974 608.275C333.636 604.868 334.41 600.214 337.67 597.678L380.646 564.257C384.186 561.506 389.268 562.31 391.886 565.953C414.661 597.648 449.597 616.416 491.681 616.416C529.553 616.416 558.213 597.995 558.213 571.38C558.213 550.909 543.883 541.699 495.774 531.463C412.861 514.067 380.108 483.36 380.108 433.214C380.108 375.03 429.013 331.071 502.788 325.363L510.842 286.958C511.601 283.322 514.81 280.719 518.527 280.719H579.188C584.196 280.719 587.921 285.335 586.859 290.232L577.536 333.269C609.279 343.04 635.13 360.51 651.223 382.065C653.715 385.406 653.074 390.14 649.851 392.78L649.858 392.765Z" clip-rule="evenodd" fill-rule="evenodd"></path>
</g>
<defs>
<clipPath id="clip0_226_2730">
<rect transform="translate(160 160)" fill="currentColor" height="680" width="680"></rect>
</clipPath>
</defs>
</svg>
