<svg xmlns="http://www.w3.org/2000/svg" fill="none" viewBox="0 0 1000 1000" height="1000" width="1000">
<g clip-path="url(#clip0_214_3156)">
<path fill="currentColor" d="M240.908 363C241.169 363.352 241.37 363.929 241.707 364.019C245.886 365.179 248.87 368.062 250.723 371.617C252.793 375.574 253.802 379.767 251.863 384.563C250.477 387.998 248.94 391.001 246.027 393.1C241.285 396.51 236.171 397.775 230.339 395.651C225.296 393.813 221.614 390.544 219.871 385.728C218.098 380.827 218.249 375.695 221.056 370.944C223.071 367.535 225.904 365.21 229.681 363.994C229.983 363.899 230.138 363.341 230.359 363C233.876 363 237.387 363 240.903 363H240.908Z"></path>
<path fill="currentColor" d="M442.823 581.866V416.913C443.657 416.863 444.305 416.783 444.958 416.783C483.948 416.783 522.938 416.727 561.927 416.828C569.999 416.848 577.891 418.339 585.687 420.584C595.894 423.527 604.775 428.544 612.34 435.951C617.86 441.359 622.004 447.787 625.124 454.742C627.173 459.317 628.273 464.328 629.619 469.194C632.518 479.665 633.733 490.406 633.291 501.213C632.945 509.74 632.066 518.297 630.629 526.703C629.745 531.86 627.429 536.791 625.626 541.773C622.064 551.616 615.926 559.63 607.824 566.163C602.981 570.065 597.652 573.229 591.74 575.233C586.239 577.096 580.719 578.994 575.073 580.284C570.642 581.299 566.006 581.836 561.46 581.851C522.556 581.992 483.646 581.967 444.742 581.987C444.174 581.987 443.602 581.916 442.823 581.866ZM495.119 499.626C495.119 513.491 495.119 527.351 495.119 541.216C495.119 544.891 495.622 545.404 499.324 545.404C512.288 545.414 525.253 545.514 538.213 545.364C544.743 545.288 551.198 544.58 557.316 541.803C563.675 538.921 568.648 534.627 571.793 528.47C573.526 525.081 574.887 521.435 575.912 517.769C577.032 513.742 578.052 509.574 578.258 505.421C578.685 496.979 578.996 488.447 575.902 480.312C574.49 476.601 573.29 472.709 571.22 469.37C568.538 465.041 564.785 461.697 560.104 459.176C555.317 456.6 550.349 454.531 545.08 454.395C529.367 453.979 513.64 454.129 497.917 454.009C495.722 453.994 495.059 454.892 495.074 457.027C495.144 471.223 495.109 485.419 495.109 499.621L495.119 499.626Z"></path>
<path fill="currentColor" d="M903 416.778V454.184C901.769 454.184 900.704 454.184 899.645 454.184C868.35 454.184 837.056 454.184 805.767 454.184C803.148 454.184 801.839 455.518 801.839 458.187C801.839 465.036 801.839 471.891 801.839 478.74C801.839 482.487 801.869 482.522 805.606 482.522C834.976 482.522 864.342 482.522 893.712 482.522C896.143 482.522 897.361 483.749 897.364 486.203C897.364 495.558 897.364 504.919 897.364 514.274C897.364 517.578 897.354 517.588 894.109 517.588C865.326 517.588 836.544 517.618 807.761 517.563C802.266 517.553 801.768 517.839 801.803 523.599C801.914 542.064 801.788 560.529 801.904 578.994C801.919 581.57 801.191 582.193 798.679 582.177C782.364 582.067 766.049 582.082 749.733 582.162C747.418 582.172 746.584 581.655 746.584 579.129C746.659 525.995 746.654 472.855 746.599 419.72C746.599 417.511 747.076 416.717 749.472 416.717C799.844 416.788 850.212 416.768 900.584 416.768H903.01L903 416.778Z"></path>
<path fill="currentColor" d="M712.778 499.365C712.778 525.929 712.748 552.494 712.828 579.059C712.838 581.505 712.075 582.182 709.704 582.167C693.223 582.087 676.742 582.092 660.261 582.167C658.151 582.177 657.569 581.474 657.569 579.436C657.614 526.14 657.614 472.845 657.559 419.545C657.559 417.35 658.181 416.717 660.397 416.727C676.792 416.818 693.193 416.818 709.588 416.727C712.035 416.712 712.848 417.285 712.838 419.916C712.728 446.396 712.773 472.88 712.773 499.36L712.778 499.365Z"></path>
<path fill="currentColor" d="M209.553 499.214C208.303 484.385 221.835 472.689 235.387 472.885C250.834 473.111 261.99 485.093 261.759 499.204C261.523 513.501 251.246 525.196 235.654 525.473C222.578 525.704 208.127 514.058 209.558 499.209L209.553 499.214Z"></path>
<path fill="currentColor" d="M235.462 583.563C221.307 583.734 211.381 572.199 211.336 559.65C211.291 547.643 221.312 536.184 235.482 536.118C248.467 536.058 259.548 547.749 259.583 560.152C259.624 572.089 248.563 584.211 235.462 583.569V583.563Z"></path>
<path fill="currentColor" d="M197.82 498.581C198.618 512.793 186.066 522.751 173.995 522.776C162.145 522.801 150.261 512.642 150.487 499.089C150.733 484.375 161.929 475.09 174.347 474.969C186.056 474.854 198.463 484.154 197.82 498.576V498.581Z"></path>
<path fill="currentColor" d="M295.932 521.796C283.731 522.811 272.715 511.175 272.805 498.772C272.896 486.644 284.183 475.411 296.314 475.802C309.675 476.234 319.46 485.851 319.511 498.681C319.561 511.04 309.926 522.364 295.932 521.796Z"></path>
<path fill="currentColor" d="M235.524 461.44C222.529 462.309 212.503 450.498 212.352 439.084C212.171 425.49 223.071 415.848 235.041 415.632C247.233 415.411 258.404 425.706 258.645 438.647C258.876 450.804 248.614 462.254 235.519 461.44H235.524Z"></path>
<path fill="currentColor" d="M196.282 560.087C196.372 572.485 185.723 582.172 173.743 581.77C161.547 581.359 152.395 572.485 152.395 559.946C152.395 547.236 161.622 538.468 174.316 538.242C186.547 538.026 196.523 547.718 196.282 560.087Z"></path>
<path fill="currentColor" d="M296.369 580.786C283.128 581.665 274.714 570.266 274.809 559.655C274.905 549.069 283.288 538.634 296.705 538.614C308.585 538.599 317.978 548.893 317.903 560.167C317.833 570.918 308.389 582.021 296.369 580.786Z"></path>
<path fill="currentColor" d="M153.023 438.351C152.611 425.601 163.335 417.008 174.19 417.239C186.904 417.516 195.358 425.927 195.739 438.421C196.071 449.323 187.949 459.512 173.828 459.778C163.516 459.974 152.078 449.675 153.023 438.346V438.351Z"></path>
<path fill="currentColor" d="M275.523 438.697C274.719 427.353 285.705 417.937 296.254 417.952C307.782 417.967 317.587 428.126 317.24 438.772C316.818 451.743 307.576 459.2 296.012 459.396C285.906 459.567 275.222 451.291 275.523 438.697Z"></path>
<path fill="currentColor" d="M253.059 618.178C254.239 627.885 243.676 635.905 235.633 636C226.506 636.105 217.63 627.172 217.47 618.605C217.279 608.717 226.356 600.401 235.417 600.376C244.399 600.351 254.073 608.617 253.059 618.183V618.178Z"></path>
<path fill="currentColor" d="M338.714 498.858C337.845 489.482 346.675 481.924 355.466 482.15C365.412 482.402 372.63 490.758 372.258 499.35C371.826 509.348 364.477 515.871 355.109 515.891C346.952 515.906 337.955 509.007 338.714 498.858Z"></path>
<path fill="currentColor" d="M174.697 602.093C183.799 601.34 190.821 610.655 190.716 618.188C190.595 626.584 183.663 634.865 173.748 634.639C164.41 634.423 157.714 626.905 157.764 618.655C157.819 610.203 164.349 601.566 174.697 602.093Z"></path>
<path fill="currentColor" d="M312.197 618.223C312.744 627.408 304.15 634.368 296.097 634.067C287.915 633.76 280.706 628.417 280.546 617.807C280.41 608.747 287.93 602.018 296.826 602.028C304.536 602.038 313.046 609.571 312.192 618.223H312.197Z"></path>
<path fill="currentColor" d="M340.261 559.63C339.744 551.435 347.645 544.299 355.587 544.379C364.327 544.469 371.355 551.645 371.204 559.961C371.043 568.614 364.302 575.032 355.507 575.177C347.585 575.308 339.694 568.338 340.261 559.63Z"></path>
<path fill="currentColor" d="M189.621 379.727C189.667 388.139 182.298 395.064 174.22 394.968C165.556 394.863 158.614 387.903 158.784 379.356C158.945 371.115 165.119 364.461 174.587 364.401C182.564 364.351 189.767 371.341 189.621 379.727Z"></path>
<path fill="currentColor" d="M310.811 379.984C311.67 389.118 303.296 394.958 296.424 394.968C287.96 394.984 281.43 388.229 281.219 379.999C281.048 373.275 287.468 365.285 296.228 365.285C303.653 365.285 311.78 371.648 310.811 379.979V379.984Z"></path>
<path fill="currentColor" d="M369.952 438.707C371.017 446.26 362.638 453.416 355.933 453.421C346.735 453.426 340.17 446.315 340.376 438.501C340.612 429.663 347.057 423.913 355.224 423.813C362.684 423.722 370.68 429.372 369.947 438.707H369.952Z"></path>
<path fill="currentColor" d="M345.475 617.891C344.887 612.157 350.865 607.401 355.667 607.707C361.936 608.109 365.537 611.976 365.763 618.419C365.944 623.631 360.449 628.824 355.159 628.402C349.629 627.96 345.314 624.4 345.475 617.891Z"></path>
<path fill="currentColor" d="M355.306 370.969C360.786 370.125 364.769 375.358 364.538 380.013C364.262 385.522 361.228 388.465 355.612 388.796C349.198 389.173 345.867 383.724 345.913 379.697C345.958 375.669 348.972 370.241 355.306 370.969Z"></path>
<path fill="currentColor" d="M113.636 516.458C123.377 516.458 131.273 508.564 131.273 498.827C131.273 489.09 123.377 481.196 113.636 481.196C103.896 481.196 96 489.09 96 498.827C96 508.564 103.896 516.458 113.636 516.458Z"></path>
<path fill="currentColor" d="M113.636 454.45C122.35 454.45 129.414 447.388 129.414 438.677C129.414 429.966 122.35 422.904 113.636 422.904C104.922 422.904 97.8584 429.966 97.8584 438.677C97.8584 447.388 104.922 454.45 113.636 454.45Z"></path>
<path fill="currentColor" d="M113.636 574.745C122.35 574.745 129.414 567.683 129.414 558.972C129.414 550.261 122.35 543.199 113.636 543.199C104.922 543.199 97.8584 550.261 97.8584 558.972C97.8584 567.683 104.922 574.745 113.636 574.745Z"></path>
<path fill="currentColor" d="M113.636 391.729C119.903 391.729 124.984 386.65 124.984 380.385C124.984 374.12 119.903 369.041 113.636 369.041C107.369 369.041 102.289 374.12 102.289 380.385C102.289 386.65 107.369 391.729 113.636 391.729Z"></path>
<path fill="currentColor" d="M113.636 629.688C119.903 629.688 124.984 624.609 124.984 618.344C124.984 612.079 119.903 607 113.636 607C107.369 607 102.289 612.079 102.289 618.344C102.289 624.609 107.369 629.688 113.636 629.688Z"></path>
</g>
<defs>
<clipPath id="clip0_214_3156">
<rect transform="translate(96 363)" fill="currentColor" height="273" width="807"></rect>
</clipPath>
</defs>
</svg>
