<svg xmlns="http://www.w3.org/2000/svg" fill="none" viewBox="0 0 1452 1452" height="1452" width="1452">
<g clip-path="url(#clip0_258_55)">
<path fill="currentColor" d="M1251.01 1308.21C1311.94 1294.99 1376.57 1258.97 1376.57 1258.97L1263.45 1165.79C1207.53 1119.77 1159.93 1064.47 1122.72 1002.34C1071.3 916.491 1000.25 844.052 915.443 790.974L874.023 766.857C859.832 756.991 849.936 741.614 848.529 724.267C847.625 713.083 850.306 703.083 856.558 694.284C878.127 663.886 989.601 531.613 1010.03 514.711C1036.34 492.964 1065.66 474.876 1092.85 454.166C1096.72 451.218 1100.6 448.285 1104.42 445.293C1104.56 445.16 1104.75 445.056 1104.87 444.937C1113.59 438.049 1121.83 430.731 1128.38 422.05C1152.02 394.674 1157.77 370.468 1159.17 359.758C1155.98 349.447 1146.43 326.397 1119.84 299.806C1136.51 300.828 1156.69 314.013 1174.98 329.523C1187.26 309.894 1200.12 289.155 1212.96 268.371C1221.54 254.491 1208.82 244.106 1208.46 243.78L1208.39 243.765C1208.39 243.765 1208.39 243.706 1208.37 243.691C1208.05 243.336 1197.66 230.611 1183.81 239.188C1154.2 257.513 1124.6 275.852 1098.28 292.518C1098.28 292.518 1067.08 291.866 1030.13 323.775C1021.44 330.337 1014.12 338.574 1007.24 347.285C1007.11 347.418 1006.99 347.596 1006.89 347.729C1003.88 351.536 1000.95 355.417 998.015 359.299C977.291 386.512 959.218 415.813 937.471 442.123C920.583 462.566 788.296 574.025 757.898 595.594C749.098 601.846 739.114 604.542 727.914 603.623C710.582 602.231 695.191 592.32 685.325 578.129L661.208 536.709C608.13 451.87 535.69 380.853 449.844 329.434C387.715 292.221 332.429 244.61 286.388 188.702L193.179 75.5839C193.179 75.5839 157.152 140.202 143.938 201.146C162.322 223.5 210.274 278.978 266.093 321.345C206.082 293.125 161.715 271.304 126.724 253.054C121.332 292.962 123.436 353.314 128.991 400.051C166.87 416.628 231.369 442.167 297.024 455.737C244.509 468.017 186.898 470.254 142.412 469.38C150.249 498.312 161.152 527.821 175.817 557.508C182.054 571.24 188.883 584.647 196.26 597.772C219.8 604.245 312.223 617.711 361.405 606.66C312.475 624.126 230.332 653.472 230.332 653.472C293.424 731.97 363.153 795.833 363.153 795.833C469.22 738.8 493.396 731.007 572.947 678.981C444.126 783.804 410.691 826.601 374.53 870.584L349.332 905.944C336.236 924.313 324.874 943.823 315.379 964.281C283.603 1032.65 238.628 1178.33 238.628 1178.33C230.599 1203.72 249.205 1222.32 273.855 1213.55C273.855 1213.55 419.505 1168.58 487.901 1136.8C508.344 1127.29 527.883 1115.93 546.237 1102.85L581.598 1077.65C593.464 1067.89 605.256 1058.32 618.203 1047.03C618.203 1047.03 707.219 1152.49 798.725 1221.86C798.725 1221.86 828.071 1139.72 845.536 1090.79C834.47 1139.99 847.936 1232.41 854.425 1255.94C867.52 1263.31 880.956 1270.14 894.689 1276.38C924.39 1291.06 953.885 1301.95 982.816 1309.78C981.957 1265.28 984.179 1207.69 996.46 1155.17C1010.03 1220.83 1035.55 1285.34 1052.14 1323.21C1098.88 1328.76 1159.23 1330.86 1199.14 1325.47C1180.89 1290.48 1159.07 1246.08 1130.85 1186.1C1173.22 1241.92 1228.7 1289.87 1251.05 1308.26L1251.01 1308.21Z"></path>
</g>
<defs>
<clipPath id="clip0_258_55">
<rect fill="currentColor" height="1452" width="1452"></rect>
</clipPath>
</defs>
</svg>
