<svg viewBox="0 0 1000 1000" xmlns="http://www.w3.org/2000/svg" id="Layer_4"><defs><style>.cls-1{stroke-width:0px;}</style></defs><path d="m751.18,193H248.82c-30.84,0-55.82,24.98-55.82,55.82v502.36c0,30.84,24.98,55.82,55.82,55.82h502.36c30.84,0,55.82-24.98,55.82-55.82V248.82c0-30.84-24.98-55.82-55.82-55.82Zm-364.1,502.36h-82.33v-264.91h82.33v264.91Zm-42-302.79c-26.54,0-48-21.52-48-48s21.49-47.98,48-47.98,47.98,21.52,47.98,47.98-21.52,48-47.98,48Zm350.4,302.79h-82.28v-128.83c0-30.73-.56-70.25-42.78-70.25s-49.43,33.46-49.43,68.01v131.06h-82.28v-264.91h78.98v36.2h1.12c11-20.82,37.84-42.78,77.89-42.78,83.36,0,98.77,54.87,98.77,126.2,0,0,0,145.29,0,145.29Z" class="cls-1"></path></svg>