<svg xmlns="http://www.w3.org/2000/svg" fill="none" viewBox="0 0 24 24" height="24" width="24">
<path fill="black" d="M3.05493 11H7.05858C7.33667 8.11471 8.54355 5.37761 10.5121 3.12241C6.57236 3.77784 3.49795 6.99238 3.05493 11ZM13.4879 3.12241C17.4276 3.77784 20.5021 6.99238 20.9451 11H16.9414C16.6633 8.11471 15.4565 5.37761 13.4879 3.12241ZM14.9305 11C14.661 8.62707 13.6505 6.35812 12 4.45918C10.3495 6.35812 9.33896 8.62707 9.06954 11H14.9305ZM9.06954 13H14.9305C14.661 15.3729 13.6505 17.6419 12 19.5408C10.3495 17.6419 9.33896 15.3729 9.06954 13ZM7.05858 13H3.05493C3.49795 17.0076 6.57235 20.2222 10.5121 20.8776C8.54354 18.6224 7.33667 15.8853 7.05858 13ZM13.4879 20.8776C15.4565 18.6224 16.6633 15.8853 16.9414 13H20.9451C20.5021 17.0076 17.4277 20.2222 13.4879 20.8776ZM1 12C1 5.92487 5.92487 1 12 1C18.0751 1 23 5.92487 23 12C23 18.0751 18.0751 23 12 23C5.92487 23 1 18.0751 1 12Z" clip-rule="evenodd" fill-rule="evenodd"></path>
</svg>
