<svg xmlns="http://www.w3.org/2000/svg" fill="none" viewBox="0 0 1000 1000" height="1000" width="1000">
<path fill="currentColor" d="M519.701 842.189C355.193 842.189 276.092 751.407 238.618 675.197C201.538 599.605 198.424 524.67 198.161 513.987C191.788 412.812 252.034 209.437 526.1 157.64C530.857 156.742 535.743 156.789 540.481 157.78C545.219 158.77 549.716 160.684 553.714 163.412C557.713 166.141 561.134 169.63 563.784 173.68C566.434 177.731 568.261 182.264 569.159 187.02C570.057 191.777 570.009 196.663 569.019 201.401C568.028 206.14 566.115 210.636 563.386 214.634C560.658 218.633 557.169 222.055 553.118 224.705C549.068 227.355 544.535 229.181 539.778 230.079C259.746 283.005 271.152 500.755 271.73 509.953C271.73 510.65 271.809 511.346 271.822 512.056C272.019 522.436 278.523 768.489 519.701 768.489C609.497 768.489 672.909 729.858 708.386 653.688C740.552 584.389 733.733 505.932 690.622 448.933C660.545 409.159 621.691 389.804 571.866 389.804C526.586 389.804 488.468 402.786 458.589 428.395C446.141 439.052 436.003 452.14 428.798 466.856C421.592 481.573 417.47 497.607 416.686 513.974C414.834 547.349 426.068 578.831 448.313 602.653C468.286 623.953 491.582 634.333 519.701 634.333C555.783 634.333 579.513 622.507 590.208 599.106C601.219 575.06 594.952 547.953 589.959 542.172C577.989 529.032 565.401 524.197 560.421 525.09C557.097 525.655 552.826 531.147 549.278 539.439C547.38 543.889 544.624 547.921 541.168 551.306C537.711 554.691 533.622 557.362 529.133 559.167C524.644 560.972 519.844 561.874 515.006 561.824C510.168 561.773 505.388 560.77 500.938 558.872C496.488 556.974 492.455 554.218 489.07 550.761C485.685 547.305 483.014 543.215 481.209 538.727C479.405 534.238 478.502 529.437 478.553 524.6C478.603 519.762 479.606 514.981 481.504 510.531C500.268 466.592 531.356 455.345 548.201 452.454C580.761 446.962 616.751 462.046 644.567 492.727C672.384 523.408 678.086 582.799 657.904 628.354C644.712 658.116 609.208 708.046 519.701 708.046C471.452 708.046 428.157 689.007 394.494 652.965C358.399 614.334 340.174 563.51 343.104 509.887C344.541 483.626 351.251 457.922 362.834 434.309C374.417 410.696 390.636 389.658 410.524 372.447C454.134 335.065 508.388 316.117 571.76 316.117C644.186 316.117 705.588 346.667 749.303 404.455C808.905 483.293 818.812 590.657 775.136 684.724C741.827 756.558 670.439 842.189 519.701 842.189Z"></path>
</svg>
