<svg xmlns="http://www.w3.org/2000/svg" fill="none" viewBox="0 0 1000 1000" height="1000" width="1000">
<path fill="currentColor" d="M728.867 157H270.134C206.54 157 155 208.316 155 271.632V728.368C155 791.685 206.54 843 270.134 843H728.867C792.46 843 844 791.685 844 728.368V271.632C844 208.316 792.46 157 728.867 157ZM718.752 682.087C718.752 702.089 702.473 718.298 682.384 718.298H316.616C296.527 718.298 280.248 702.089 280.248 682.087V317.913C280.248 297.911 296.527 281.702 316.616 281.702H682.384C702.473 281.702 718.752 297.911 718.752 317.913V682.087ZM426.416 593.113C414.847 593.113 405.564 583.802 405.564 572.283V426.889C405.564 415.371 414.847 405.991 426.416 405.991H572.653C584.153 405.991 593.505 415.302 593.505 426.889V572.214C593.505 583.733 584.153 593.044 572.653 593.044H426.416V593.113Z"></path>
</svg>
