<svg xmlns="http://www.w3.org/2000/svg" fill="none" viewBox="0 0 1000 1000" height="1000" width="1000">
<path fill="currentColor" d="M279.382 300.453L350.431 544.73L421.472 300.453H614.083V324.735L541.559 451.088C567.037 459.348 586.305 474.387 599.367 496.182C612.437 517.99 618.978 543.577 618.978 572.975C618.978 609.326 609.411 639.876 590.298 664.642C571.186 689.407 546.445 701.798 516.072 701.798C493.201 701.798 473.283 694.459 456.308 679.758C439.32 665.057 426.748 645.161 418.585 620.048L458.751 603.203C464.634 618.399 472.395 630.375 482.033 639.118C491.667 647.873 503.019 652.255 516.081 652.255C529.788 652.255 541.395 644.491 550.866 628.972C560.345 613.445 565.084 594.791 565.084 572.97C565.084 548.853 560.018 530.186 549.902 516.977C538.123 501.458 519.668 493.686 494.521 493.686H474.935V469.908L543.52 349.992H460.737L456.027 358.103L355.326 701.735H350.427L276.926 453.016L203.442 701.735H198.547L80.9795 300.436H132.422L203.463 544.713L251.486 380.224L227.973 300.444H279.403V300.427L279.382 300.453Z"></path>
<path fill="currentColor" d="M881.419 300.452C871.32 300.452 862.252 304.134 855.375 311.194C848.084 318.687 844.023 328.362 844.023 338.367C844.023 348.372 847.887 357.644 854.965 364.921C862.16 372.294 871.425 376.303 881.423 376.303C891.204 376.303 900.7 372.299 908.079 365.039C915.157 358.085 919.02 348.817 919.02 338.388C919.02 328.273 915.06 318.797 908.192 311.737C901.068 304.342 891.682 300.452 881.457 300.452H881.419ZM914.021 338.693C914.021 347.44 910.673 355.555 904.551 361.547C898.085 367.879 890.064 371.248 881.21 371.248C872.887 371.248 864.662 367.781 858.506 361.454C852.367 355.123 848.922 347.02 848.922 338.388C848.922 329.747 852.467 321.323 858.816 314.801C864.75 308.686 872.762 305.431 881.511 305.431C890.475 305.431 898.487 308.817 904.739 315.224C910.815 321.318 914.042 329.518 914.042 338.693H914.021ZM882.467 316.144H866.434V359.128H874.455V340.804H882.379L891.024 359.128H899.979L890.492 339.545C896.631 338.269 900.184 334.066 900.184 327.959C900.226 320.161 894.359 316.144 882.5 316.144H882.467ZM881 321.416C888.497 321.416 891.933 323.526 891.933 328.79C891.933 333.837 888.497 335.642 881.193 335.642H874.417V321.416H881Z"></path>
<path fill="currentColor" d="M818.35 298.203L826.681 349.438L797.184 406.516C797.184 406.516 785.866 382.297 767.05 368.906C751.206 357.617 740.877 355.159 724.727 358.528C703.988 362.854 680.471 387.929 670.209 418.848C657.93 455.831 657.809 473.74 657.373 490.178C656.686 516.55 660.793 532.115 660.793 532.115C660.793 532.115 642.878 498.611 643.05 449.538C643.163 414.5 648.615 382.734 664.639 351.391C678.74 323.829 699.701 307.285 718.307 305.34C737.541 303.335 752.732 312.705 764.486 322.846C776.81 333.508 789.277 356.79 789.277 356.79L818.275 298.203H818.35Z"></path>
<path fill="currentColor" d="M821.997 588.099C821.997 588.099 808.96 611.674 800.839 620.751C792.714 629.841 778.177 645.83 760.229 653.835C742.281 661.832 732.869 663.328 715.123 661.616C697.401 659.895 680.928 649.517 675.158 645.186C669.388 640.855 654.633 628.112 646.29 616.217C637.943 604.321 624.91 580.552 624.91 580.552C624.91 580.552 632.168 604.381 636.727 614.496C639.338 620.323 647.375 638.126 658.794 653.619C669.442 668.07 690.118 692.958 721.538 698.578C752.959 704.205 774.548 689.928 779.895 686.479C785.229 683.029 796.493 673.486 803.63 665.76C811.068 657.726 818.116 647.453 822.005 641.296C824.863 636.791 829.502 627.671 829.502 627.671L822.001 588.129L821.997 588.099Z"></path>
</svg>
