<svg xmlns="http://www.w3.org/2000/svg" fill="none" viewBox="0 0 1000 1000" height="1000" width="1000">
<path fill="currentColor" d="M732.466 229C677.379 229 631.47 265.623 617.388 320.434C592.006 238.075 527.039 229.063 499.933 229.063C472.836 229.063 407.892 238.075 382.461 320.416C368.375 265.655 322.461 229.063 267.388 229.063C199.808 229.063 146.874 277.374 146.874 339.045C146.874 366.316 153.614 388.089 161.756 411.707L253.511 671.184C284.234 757.24 346.825 770.09 381.398 770.09C435.628 770.09 477.888 742.314 499.924 693.091C521.983 742.537 564.248 770.452 618.451 770.452C652.979 770.452 715.507 757.58 746.387 671.206L838.652 410.845L839.371 408.696C840.425 405.36 841.488 402.229 842.493 399.255C847.405 384.721 852.97 368.245 852.97 348.053C852.97 279.071 802.292 229 732.466 229ZM775.958 388.629L683.698 648.991C672.434 680.492 653.698 703.94 618.451 703.94C585.427 703.94 565.927 685.539 556.186 654.007L500.67 480.724H499.161L443.676 654.007C433.917 685.543 414.413 703.578 381.398 703.578C346.142 703.578 327.392 680.322 316.146 648.821L224.636 390.036C217.133 368.276 213.386 354.811 213.386 339.04C213.386 315.029 235.9 295.574 267.388 295.574C293.645 295.574 312.394 312.886 318.397 338.388L380.657 544.802H382.149L445.159 342.935C453.426 313.685 468.419 295.574 499.933 295.574C531.43 295.574 546.427 313.654 554.677 342.904L617.691 544.802H619.179L681.461 338.388C687.455 312.886 706.2 295.512 732.466 295.512C763.953 295.512 786.459 315.038 786.459 348.053C786.459 360.05 781.193 372.1 775.958 388.629Z"></path>
</svg>
